<?xml version="1.0" standalone="no"?>
<!DOCTYPE svg PUBLIC "-//W3C//DTD SVG 20010904//EN"
 "http://www.w3.org/TR/2001/REC-SVG-20010904/DTD/svg10.dtd">
<svg version="1.0" xmlns="http://www.w3.org/2000/svg"
 width="2820.000000pt" height="2820.000000pt" viewBox="0 0 2820.000000 2820.000000"
 preserveAspectRatio="xMidYMid meet">
<metadata>
Created by potrace 1.14, written by Peter Selinger 2001-2017
</metadata>
<g transform="translate(0.000000,2820.000000) scale(0.100000,-0.100000)"
fill="#000000" stroke="none">
<path d="M19748 24585 c-2 -2 -30 -6 -63 -10 -77 -8 -153 -30 -231 -66 -34
-16 -67 -29 -72 -29 -6 0 -12 -3 -14 -8 -1 -4 -239 -126 -528 -271 -864 -435
-1234 -622 -1247 -633 -7 -6 -13 -8 -13 -4 0 3 -16 -3 -36 -15 -44 -24 -197
-103 -204 -104 -3 -1 -27 -13 -55 -27 -64 -33 -736 -373 -1012 -512 -116 -58
-216 -106 -221 -106 -6 0 -12 -3 -14 -7 -2 -5 -235 -125 -518 -267 -283 -142
-756 -380 -1050 -529 -294 -148 -814 -410 -1155 -582 -341 -172 -894 -451
-1230 -620 -726 -366 -1510 -762 -1533 -775 -10 -5 -62 -31 -117 -58 -55 -27
-117 -59 -137 -70 -21 -12 -38 -19 -38 -16 0 4 -6 2 -12 -4 -13 -10 -238 -124
-1563 -792 -352 -177 -666 -341 -698 -363 -107 -75 -205 -221 -242 -362 -19
-73 -22 -215 -5 -287 30 -128 117 -262 210 -325 25 -17 293 -155 595 -308 303
-152 556 -282 563 -287 6 -6 12 -7 12 -3 0 4 6 3 13 -3 6 -5 309 -159 672
-342 363 -183 885 -446 1160 -585 275 -139 793 -400 1150 -580 935 -471 2446
-1233 3535 -1782 300 -152 599 -302 665 -335 66 -33 127 -63 135 -68 21 -12
1180 -596 1710 -862 245 -123 447 -225 450 -228 6 -6 123 -65 130 -65 3 0 11
-4 18 -8 60 -38 816 -410 859 -422 123 -36 249 -39 358 -9 96 26 145 46 145
56 0 4 4 8 9 8 20 0 98 60 152 117 84 88 137 190 160 307 23 116 8 277 -36
386 -7 19 -26 69 -41 110 -14 41 -32 89 -39 105 -15 36 -49 128 -50 135 -1 5
-13 38 -70 190 -18 47 -67 180 -110 295 -42 116 -87 237 -100 270 -13 33 -51
134 -85 225 -34 91 -67 181 -75 200 -23 60 -147 394 -150 405 -1 6 -7 21 -12
35 -6 14 -79 210 -163 435 -84 226 -215 579 -292 785 -77 206 -196 529 -266
717 l-127 341 -70 11 c-38 6 -81 13 -95 16 -13 2 -40 7 -60 10 -20 3 -47 8
-60 10 -14 3 -41 7 -60 10 -19 3 -46 7 -60 10 -14 3 -41 7 -60 10 -19 3 -48 8
-65 11 -16 4 -39 8 -50 9 -11 1 -36 5 -55 8 -58 11 -92 17 -145 23 -27 4 -53
8 -56 10 -4 2 -130 24 -224 39 -11 1 -33 5 -50 8 -16 3 -48 8 -70 12 -23 3
-52 8 -65 10 -14 3 -41 7 -60 10 -19 3 -44 7 -55 9 -11 2 -40 7 -65 11 -25 4
-54 9 -65 11 -25 5 -143 25 -170 29 -11 1 -36 5 -55 9 -19 3 -48 8 -65 11 -55
9 -220 36 -245 41 -14 2 -41 7 -60 10 -19 4 -44 8 -55 9 -11 1 -36 5 -55 8
-42 8 -82 15 -130 23 -63 10 -85 13 -110 19 -14 3 -41 7 -60 10 -19 2 -47 6
-63 9 -32 7 -128 23 -177 30 -19 3 -73 12 -120 20 -47 8 -101 17 -120 20 -19
3 -45 8 -56 10 -22 5 -61 11 -129 21 -22 4 -132 22 -245 41 -113 19 -216 37
-230 39 -14 2 -203 34 -420 70 -217 36 -408 68 -425 71 -16 2 -55 9 -85 14
-30 5 -70 12 -87 15 -18 3 -45 7 -60 9 -16 3 -71 12 -123 21 -52 9 -106 18
-120 20 -14 2 -68 11 -120 20 -52 9 -106 18 -120 20 -23 4 -596 99 -665 111
-16 3 -41 7 -55 9 -14 2 -68 11 -120 20 -52 9 -106 18 -120 20 -14 2 -122 20
-240 40 -118 20 -226 38 -240 40 -14 2 -68 11 -120 20 -52 9 -106 18 -120 20
-22 3 -88 14 -177 30 -16 3 -62 10 -103 16 -41 6 -79 16 -85 21 -7 6 -7 9 0 7
9 -3 69 5 125 16 9 2 35 6 56 10 47 7 61 9 184 30 52 9 109 18 125 21 17 3 41
7 55 9 14 2 41 7 60 10 19 3 60 10 90 15 30 5 71 12 90 15 19 3 60 10 90 15
30 5 72 12 94 16 21 3 48 7 59 10 12 2 37 6 57 9 34 5 46 7 110 19 14 3 43 8
65 11 40 5 82 12 263 44 31 5 75 13 96 16 21 3 48 7 60 10 12 2 37 7 56 9 19
3 143 24 275 46 132 23 254 43 270 45 17 2 111 18 210 35 99 17 191 33 205 35
63 10 157 25 180 30 14 3 43 7 65 10 22 3 51 8 65 10 14 3 36 7 50 10 43 7
102 16 124 21 25 5 256 43 306 50 19 3 42 7 50 9 8 2 38 7 65 11 28 3 80 12
116 19 36 8 90 17 120 20 29 4 56 8 59 10 3 2 30 6 60 10 30 3 71 10 90 15 19
5 53 11 75 14 41 6 271 44 315 52 14 2 41 7 60 10 19 3 46 7 60 10 14 2 41 7
60 10 19 2 58 9 85 14 28 5 64 11 80 13 17 3 46 8 65 11 19 3 46 8 60 10 31 5
85 14 125 21 17 3 46 8 65 11 19 2 46 6 60 9 14 3 39 8 55 10 17 3 46 8 65 11
41 7 22 4 290 49 118 20 226 38 240 40 14 2 95 16 180 30 85 14 166 28 180 30
14 2 39 6 55 9 17 3 73 12 125 21 52 9 104 17 115 19 11 2 40 7 65 11 25 4 54
9 65 11 11 2 40 7 65 10 25 3 47 8 50 9 3 2 26 6 50 10 25 3 68 10 95 15 28 5
68 12 90 15 22 3 98 16 170 28 l130 22 118 315 c64 173 124 333 132 355 7 22
66 180 130 350 64 171 134 360 157 420 22 61 90 243 150 405 60 162 145 390
188 505 43 116 115 309 160 430 45 121 108 292 141 380 33 88 63 169 69 180 7
16 18 49 25 75 1 3 5 12 8 20 4 8 21 53 38 100 50 139 84 228 128 345 24 61
44 115 45 120 2 11 23 69 37 100 40 93 103 284 113 345 22 131 5 242 -54 355
-50 97 -112 170 -195 231 -22 16 -42 31 -45 34 -3 3 -42 22 -87 43 -81 37
-144 55 -218 63 -78 8 -115 11 -117 9z"/>
<path d="M8355 16343 c-116 -14 -275 -72 -348 -127 -102 -76 -198 -188 -233
-272 -45 -108 -59 -253 -35 -359 12 -49 104 -313 123 -348 5 -10 11 -26 13
-35 2 -9 9 -30 16 -47 6 -16 13 -34 14 -40 2 -5 14 -39 28 -75 14 -36 38 -101
55 -145 16 -44 43 -114 58 -155 16 -41 29 -77 30 -80 0 -3 4 -14 9 -25 8 -20
35 -92 102 -275 19 -52 41 -111 49 -130 14 -37 180 -485 240 -650 20 -52 39
-104 44 -115 5 -11 32 -83 60 -160 101 -276 412 -1110 420 -1130 8 -17 196
-522 295 -790 18 -49 43 -118 56 -152 l22 -62 61 -10 c34 -6 70 -13 81 -15 11
-2 42 -7 68 -10 27 -4 59 -9 70 -12 12 -2 65 -11 117 -20 52 -8 106 -17 120
-20 14 -2 41 -7 60 -9 19 -3 46 -8 60 -11 13 -3 40 -8 60 -10 19 -2 46 -7 60
-9 31 -6 148 -26 175 -30 11 -2 34 -6 50 -9 17 -3 47 -8 69 -11 21 -4 48 -9
60 -11 11 -2 41 -7 66 -10 25 -3 61 -9 80 -14 19 -5 55 -11 80 -14 25 -3 56
-8 70 -11 13 -2 40 -7 60 -10 20 -3 45 -7 57 -9 11 -3 36 -7 54 -10 19 -3 77
-13 129 -22 104 -18 112 -19 184 -29 28 -3 53 -8 56 -10 4 -2 29 -7 56 -10 27
-4 56 -8 64 -10 8 -2 31 -7 50 -10 19 -3 46 -7 60 -10 14 -2 43 -7 65 -10 23
-3 52 -8 65 -10 14 -3 81 -14 150 -26 69 -11 136 -22 150 -25 14 -2 144 -24
290 -48 264 -44 285 -48 390 -66 30 -5 69 -12 85 -14 17 -3 73 -12 125 -21 52
-9 106 -18 120 -20 14 -2 135 -23 270 -45 135 -22 259 -43 275 -46 17 -2 57
-9 90 -15 33 -6 71 -12 85 -14 14 -2 122 -20 240 -40 118 -20 226 -38 240 -40
82 -13 255 -43 285 -49 11 -2 45 -7 75 -12 30 -4 57 -8 60 -9 3 -1 30 -5 60
-10 30 -5 57 -9 60 -10 3 -1 28 -5 55 -10 28 -4 59 -9 70 -11 46 -9 322 -56
345 -58 14 -2 39 -6 55 -10 17 -3 46 -8 65 -11 19 -3 46 -7 60 -10 14 -3 41
-7 60 -10 19 -3 45 -7 56 -9 21 -4 81 -15 119 -21 18 -2 114 -18 185 -30 14
-2 66 -11 115 -20 50 -8 113 -18 140 -21 28 -4 53 -8 56 -10 4 -2 24 -6 45 -9
22 -3 62 -10 89 -15 28 -6 70 -12 94 -15 24 -3 47 -7 50 -9 3 -2 33 -7 66 -11
32 -3 62 -8 65 -10 3 -1 27 -6 55 -10 27 -3 51 -7 52 -9 2 -2 -47 -11 -109
-21 -62 -10 -122 -19 -133 -21 -49 -9 -133 -23 -169 -29 -21 -3 -41 -7 -45 -9
-3 -2 -31 -7 -62 -10 -31 -4 -67 -9 -80 -12 -13 -3 -40 -7 -59 -10 -19 -3 -55
-9 -80 -14 -25 -5 -62 -12 -82 -15 -93 -13 -115 -16 -138 -21 -58 -11 -69 -13
-106 -19 -70 -11 -88 -14 -184 -30 -52 -9 -111 -19 -130 -21 -19 -3 -55 -9
-80 -14 -58 -11 -116 -21 -160 -26 -19 -2 -59 -9 -88 -15 -29 -6 -66 -12 -82
-15 -17 -2 -43 -6 -58 -8 -15 -2 -66 -11 -112 -20 -47 -8 -103 -18 -125 -21
-22 -3 -65 -10 -95 -15 -30 -5 -73 -12 -95 -15 -22 -3 -60 -10 -85 -15 -25 -5
-63 -12 -84 -15 -21 -3 -48 -7 -60 -10 -20 -4 -65 -11 -131 -21 -16 -2 -41 -6
-55 -9 -28 -6 -70 -13 -115 -20 -16 -2 -41 -6 -55 -9 -14 -3 -41 -7 -60 -10
-19 -3 -48 -8 -65 -11 -16 -3 -57 -9 -90 -15 -33 -6 -73 -12 -90 -15 -16 -3
-46 -8 -65 -11 -19 -3 -73 -12 -120 -19 -47 -8 -103 -17 -125 -20 -22 -4 -47
-8 -55 -10 -8 -3 -33 -7 -55 -10 -22 -4 -51 -8 -65 -11 -44 -7 -433 -72 -474
-78 -21 -4 -48 -8 -60 -11 -12 -2 -37 -7 -56 -9 -19 -3 -75 -13 -125 -21 -49
-9 -103 -18 -120 -20 -34 -5 -101 -15 -130 -21 -33 -7 -438 -76 -460 -78 -26
-3 -114 -17 -140 -22 -11 -3 -36 -7 -55 -10 -19 -2 -57 -9 -85 -14 -56 -11
-91 -16 -150 -25 -22 -4 -47 -8 -55 -10 -8 -2 -37 -7 -65 -10 -27 -4 -57 -8
-65 -10 -8 -2 -28 -7 -45 -9 -16 -3 -86 -15 -155 -26 -69 -12 -136 -23 -150
-24 -14 -2 -38 -6 -55 -9 -16 -4 -45 -9 -62 -12 -18 -3 -45 -7 -60 -10 -16 -2
-44 -7 -63 -10 -19 -3 -46 -7 -60 -10 -14 -3 -40 -7 -57 -10 -57 -9 -96 -15
-153 -25 -30 -5 -68 -12 -85 -14 -16 -3 -86 -15 -155 -26 -69 -12 -143 -24
-165 -26 -22 -3 -46 -7 -54 -10 -8 -2 -30 -7 -50 -10 -112 -16 -192 -31 -196
-36 -2 -2 -69 -181 -149 -398 -81 -217 -150 -404 -155 -415 -5 -11 -27 -69
-49 -130 -98 -266 -244 -662 -252 -680 -5 -11 -31 -81 -59 -155 -109 -299
-212 -576 -220 -595 -9 -20 -35 -91 -92 -250 -16 -44 -36 -96 -44 -115 -8 -19
-50 -132 -94 -250 -125 -339 -176 -478 -271 -730 -253 -675 -243 -642 -242
-795 1 -89 15 -160 43 -222 10 -24 19 -46 19 -49 0 -3 20 -36 44 -73 144 -217
387 -318 648 -271 118 22 -18 -45 2338 1146 96 49 177 89 180 89 3 0 11 4 18
8 6 5 204 105 440 224 960 484 1894 955 3437 1733 275 139 507 256 515 261 8
5 38 19 65 32 28 13 286 143 575 289 289 146 761 385 1050 530 289 146 534
270 545 276 11 6 74 38 140 70 499 249 1031 518 1033 525 2 4 9 7 15 7 7 0 91
41 187 90 96 49 180 90 187 90 6 0 13 3 15 8 2 4 221 117 488 251 267 134 501
255 520 269 98 71 184 201 207 312 9 43 19 128 18 150 -13 223 -104 397 -270
515 -33 23 -316 172 -630 330 -313 158 -883 445 -1265 638 -382 192 -888 449
-1125 569 -236 120 -437 221 -445 224 -8 3 -24 10 -35 17 -29 15 -159 81 -165
82 -3 0 -38 18 -77 38 -40 21 -76 38 -80 38 -5 0 -13 5 -18 9 -13 11 -358 186
-1065 540 -289 145 -532 269 -540 276 -8 7 -19 13 -25 14 -5 0 -73 33 -150 72
-77 38 -221 110 -320 160 -99 49 -187 93 -195 98 -8 4 -278 141 -600 303 -322
162 -751 379 -955 482 -203 103 -377 191 -385 195 -21 10 -35 17 -200 101 -80
40 -147 74 -150 74 -3 0 -10 3 -15 7 -6 3 -215 110 -465 236 -250 126 -756
381 -1125 567 -685 345 -699 353 -725 365 -8 5 -181 91 -385 193 -354 177
-420 206 -510 222 -48 8 -158 13 -200 8z"/>
</g>
</svg>
